<svg width="844" height="96" viewBox="0 0 844 96" fill="none" xmlns="http://www.w3.org/2000/svg"><path d="M.055 61.256V3.4h13.184v44.8h33.92V3.4h13.184v57.856L60.5 93H.055V79h46.552V61.256H.055zM115.066 3.4h13.184V93h-13.184V61.256H71.93V3.4h13.184v44.8h29.952V3.4zM152.668 93h-13.056V3.4h59.008V93h-13.184V54.856h-32.768V93zm0-76.416v25.088h32.768V16.584h-32.768zm149.217 44.032c-5.504 20.224-24.064 35.2-46.208 35.2-26.368 0-47.744-21.376-47.744-47.744S229.309.328 255.677.328c22.4 0 41.216 15.36 46.464 36.096h-14.08c-1.792-4.736-4.48-8.96-8.064-12.672-6.528-6.4-15.104-9.984-24.32-9.984-9.088 0-17.792 3.584-24.192 9.984-6.528 6.528-10.112 15.104-10.112 24.32 0 9.216 3.584 17.792 10.112 24.32 6.4 6.4 15.104 9.984 24.192 9.984 9.216 0 17.792-3.584 24.32-9.984 3.456-3.456 6.016-7.424 7.68-11.776h14.208zm60.836-44.032h-23.296V93h-13.056V16.584h-23.296V3.4h59.648v13.184zm86.342 76.16h-76.288V3.4h51.072v35.2h25.088v.896h.128v53.248zm-38.4-54.144V16.584h-24.704V38.6h24.704zm-24.704 40.96h49.92V51.656h-49.92V79.56zm166.593-31.488c0 26.368-21.504 47.872-47.872 47.872-26.496 0-47.872-21.504-47.872-47.872C456.808 21.576 478.184.2 504.68.2c26.368 0 47.872 21.376 47.872 47.872zm-82.304 0c0 9.088 3.584 17.792 10.112 24.192 6.528 6.528 15.104 10.112 24.32 10.112 9.216 0 17.792-3.584 24.32-10.112 6.528-6.4 9.984-15.104 9.984-24.192 0-9.216-3.456-17.92-9.984-24.32-6.528-6.528-15.104-10.112-24.32-10.112-9.216 0-17.792 3.584-24.32 10.112-6.528 6.4-10.112 15.104-10.112 24.32zm167.69 44.672H561.65V3.4h51.072v35.2h25.088v.896h.128v53.248zm-38.4-54.144V16.584h-24.704V38.6h24.704zm-24.704 40.96h49.92V51.656h-49.92V79.56zM661.043 93h-13.056V3.4h59.008V93h-13.184V54.856h-32.768V93zm0-76.416v25.088h32.768V16.584h-32.768zm116.428 0h-23.296V93h-13.056V16.584h-23.296V3.4h59.648v13.184zm66.437 43.648c0 8.704-3.456 16.896-9.6 23.168A32.744 32.744 0 01811.14 93h-24.96V3.4h13.568v23.936h11.392a32.744 32.744 0 0123.168 9.6c6.144 6.272 9.6 14.464 9.6 23.296zm-32.768 19.2c10.624 0 19.328-8.576 19.328-19.2 0-10.624-8.704-19.328-19.328-19.328h-11.392v38.528h11.392z" fill="#F2B604"/></svg>