<svg width="228" height="26" viewBox="0 0 228 26" fill="none" xmlns="http://www.w3.org/2000/svg"><path d="M0 16.58V.87h3.562v12.166h9.165V.869h3.562V16.58l.043 8.62H0v-3.8h12.578v-4.82H0zM31.075.869h3.562v24.332h-3.562v-8.62H19.42V.868h3.562v12.166h8.093V.869zM41.234 25.2h-3.527V.87H53.65v24.332h-3.562v-10.36h-8.854v10.359zm0-20.75v6.812h8.854V4.449h-8.854zm40.317 11.956c-1.487 5.492-6.502 9.56-12.485 9.56-7.124 0-12.9-5.806-12.9-12.966 0-7.16 5.776-12.965 12.9-12.965 6.053 0 11.136 4.17 12.554 9.802h-3.804a10.017 10.017 0 00-2.179-3.441c-1.763-1.738-4.08-2.712-6.57-2.712a9.215 9.215 0 00-6.537 2.712A9.278 9.278 0 0059.798 13c0 2.503.968 4.832 2.732 6.604a9.215 9.215 0 006.536 2.712c2.49 0 4.808-.974 6.571-2.712a9.094 9.094 0 002.075-3.198h3.84zM97.988 4.45h-6.294V25.2h-3.528V4.45h-6.294V.868h16.116v3.58zm23.329 20.681h-20.612V.869h13.799v9.559h6.779v.243h.034v14.46zm-10.375-14.703V4.449h-6.675v5.979h6.675zm-6.675 11.123h13.488v-7.578h-13.488v7.578zM149.279 13c0 7.16-5.81 13-12.935 13-7.159 0-12.934-5.84-12.934-13 0-7.195 5.775-13 12.934-13 7.125 0 12.935 5.805 12.935 13zm-22.238 0c0 2.468.968 4.832 2.732 6.57 1.764 1.772 4.081 2.745 6.571 2.745 2.49 0 4.807-.973 6.571-2.745 1.764-1.738 2.698-4.102 2.698-6.57 0-2.503-.934-4.866-2.698-6.604-1.764-1.773-4.081-2.746-6.571-2.746-2.49 0-4.807.973-6.571 2.746-1.764 1.738-2.732 4.101-2.732 6.604zm45.308 12.131h-20.612V.869h13.799v9.559h6.779v.243h.034v14.46zm-10.375-14.703V4.449h-6.675v5.979h6.675zm-6.675 11.123h13.488v-7.578h-13.488v7.578zm23.293 3.649h-3.528V.87h15.944v24.332h-3.563v-10.36h-8.853v10.359zm0-20.75v6.812h8.853V4.449h-8.853zm31.457 0h-6.294V25.2h-3.527V4.45h-6.295V.868h16.116v3.58zM228 16.302c0 2.364-.934 4.588-2.594 6.292a8.825 8.825 0 01-6.26 2.607h-6.743V.869h3.665v6.5h3.078c2.352 0 4.6.938 6.26 2.607 1.66 1.703 2.594 3.928 2.594 6.326zm-8.854 5.214c2.871 0 5.223-2.329 5.223-5.214 0-2.885-2.352-5.248-5.223-5.248h-3.078v10.462h3.078z" fill="#fff"/></svg>