<svg width="32" height="32" viewBox="0 0 32 32" fill="none" xmlns="http://www.w3.org/2000/svg"><rect width="32" height="32" rx="2" fill="#D8A201"/><path d="M24.7 10.187c-.232 2.436-1.234 8.356-1.742 11.085-.216 1.156-.648 1.541-1.049 1.588-.894.077-1.572-.586-2.435-1.157-1.357-.894-2.128-1.449-3.438-2.312-1.527-1.002-.54-1.557.339-2.451.231-.232 4.178-3.824 4.255-4.148a.308.308 0 00-.077-.277c-.093-.077-.216-.046-.324-.03-.139.03-2.297 1.464-6.506 4.3-.617.417-1.172.633-1.665.617-.555-.015-1.603-.308-2.39-.57-.97-.309-1.726-.478-1.664-1.018.03-.277.416-.555 1.14-.848 4.502-1.958 7.493-3.253 8.988-3.87C22.418 9.309 23.297 9 23.882 9c.124 0 .417.03.602.185.154.123.2.293.216.416-.016.093.015.37 0 .586z" fill="#09151F"/></svg>