<svg width="33" height="32" viewBox="0 0 33 32" fill="none" xmlns="http://www.w3.org/2000/svg"><path d="M33.3 28.8V3.6c0-1.98-1.67-3.6-3.71-3.6H3.71C1.581 0 0 1.535 0 3.6v25.2c0 2.066 1.582 3.6 3.71 3.6h25.88a3.768 3.768 0 002.619-1.055A3.566 3.566 0 0033.3 28.8zm-7.06-9.707s2.095 2.01 2.61 2.943c.015.02.021.037.027.045.209.342.262.612.157.81-.174.329-.766.495-.968.509h-3.698c-.259 0-.795-.065-1.446-.502-.5-.339-.994-.898-1.475-1.444-.718-.81-1.34-1.512-1.965-1.512a.726.726 0 00-.233.038c-.475.148-1.078.805-1.078 2.56 0 .549-.444.862-.759.862h-1.694c-.578 0-3.584-.196-6.246-2.93-3.267-3.349-6.201-10.064-6.227-10.124-.185-.434.198-.67.614-.67h3.737c.501 0 .662.296.777.56.13.301.618 1.514 1.417 2.879 1.3 2.219 2.102 3.123 2.74 3.123a.704.704 0 00.34-.089c.835-.448.68-3.342.642-3.94 0-.113-.002-1.294-.427-1.861-.307-.41-.827-.567-1.141-.626.128-.172.297-.312.492-.407C13.007 9.04 14.038 9 15.063 9h.57c1.111.014 1.4.085 1.801.184.813.189.83.702.757 2.448a40.38 40.38 0 00-.043 1.72c0 .143-.005.3-.005.461-.026.893-.056 1.903.592 2.317.084.05.18.078.28.079.225 0 .9 0 2.73-3.055.805-1.348 1.424-2.939 1.467-3.058a.957.957 0 01.274-.33.657.657 0 01.307-.07h4.394c.48 0 .806.07.867.249.106.286-.02 1.16-2.027 3.798l-.894 1.152c-1.82 2.318-1.82 2.437.107 4.198z" fill="#D8A201"/></svg>