<svg width="228" height="26" viewBox="0 0 228 26" fill="none" xmlns="http://www.w3.org/2000/svg">
<path d="M0 16.5802V0.868983H3.56217V13.0348H12.727V0.868983H16.2892V16.5802L16.3316 25.2005H0V21.3987H8.09082H12.5778V16.5802H0Z" fill="white"/>
<path d="M31.0747 0.868983H34.6369V25.2005H31.0747V16.5802H19.4199V0.868983H22.982V13.0348H31.0747V0.868983Z" fill="white"/>
<path d="M41.2344 25.2005H37.7068V0.868983H53.6501V25.2005H50.0879V14.8422H41.2344V25.2005ZM41.2344 4.4492V11.262H50.0879V4.4492H41.2344Z" fill="white"/>
<path d="M81.5512 16.4064C80.0641 21.8984 75.0494 25.9652 69.0663 25.9652C61.942 25.9652 56.1664 20.1604 56.1664 13C56.1664 5.83957 61.942 0.0347589 69.0663 0.0347589C75.1186 0.0347589 80.2024 4.20588 81.6204 9.8369H77.8161C77.3319 8.5508 76.6057 7.40374 75.6373 6.39572C73.8735 4.65775 71.5564 3.68449 69.0663 3.68449C66.6108 3.68449 64.2591 4.65775 62.5299 6.39572C60.7661 8.16845 59.7977 10.4973 59.7977 13C59.7977 15.5027 60.7661 17.8316 62.5299 19.6043C64.2591 21.3422 66.6108 22.3155 69.0663 22.3155C71.5564 22.3155 73.8735 21.3422 75.6373 19.6043C76.5711 18.6658 77.2628 17.5882 77.7124 16.4064H81.5512Z" fill="white"/>
<path d="M97.9884 4.4492H91.6941V25.2005H88.1665V4.4492H81.8722V0.868983H97.9884V4.4492Z" fill="white"/>
<path d="M121.317 25.131H100.705V0.868983H114.504V10.4278H121.283V10.6711H121.317V25.131ZM110.942 10.4278V4.4492H104.267V10.4278H110.942ZM104.267 21.5508H117.755V13.9733H104.267V21.5508Z" fill="white"/>
<path d="M149.279 13C149.279 20.1604 143.469 26 136.344 26C129.185 26 123.41 20.1604 123.41 13C123.41 5.80481 129.185 0 136.344 0C143.469 0 149.279 5.80481 149.279 13ZM127.041 13C127.041 15.4679 128.009 17.8316 129.773 19.5695C131.537 21.3422 133.854 22.3155 136.344 22.3155C138.834 22.3155 141.151 21.3422 142.915 19.5695C144.679 17.8316 145.613 15.4679 145.613 13C145.613 10.4973 144.679 8.13369 142.915 6.39572C141.151 4.62299 138.834 3.64973 136.344 3.64973C133.854 3.64973 131.537 4.62299 129.773 6.39572C128.009 8.13369 127.041 10.4973 127.041 13Z" fill="white"/>
<path d="M172.349 25.131H151.737V0.868983H165.536V10.4278H172.315V10.6711H172.349V25.131ZM161.974 10.4278V4.4492H155.299V10.4278H161.974ZM155.299 21.5508H168.787V13.9733H155.299V21.5508Z" fill="white"/>
<path d="M178.592 25.2005H175.064V0.868983H191.008V25.2005H187.445V14.8422H178.592V25.2005ZM178.592 4.4492V11.262H187.445V4.4492H178.592Z" fill="white"/>
<path d="M210.049 4.4492H203.755V25.2005H200.228V4.4492H193.933V0.868983H210.049V4.4492Z" fill="white"/>
<path d="M228 16.3021C228 18.6658 227.066 20.8904 225.406 22.5936C223.746 24.262 221.498 25.2005 219.146 25.2005H212.403V0.868983H216.068V7.36898H219.146C221.498 7.36898 223.746 8.30749 225.406 9.97594C227.066 11.6791 228 13.9037 228 16.3021ZM219.146 21.516C222.017 21.516 224.369 19.1872 224.369 16.3021C224.369 13.4171 222.017 11.0535 219.146 11.0535H216.068V21.516H219.146Z" fill="white"/>
</svg>
