<svg width="844" height="96" viewBox="0 0 844 96" fill="none" xmlns="http://www.w3.org/2000/svg">
<path d="M0.0549927 61.256V3.39995H13.239V48.2H47.159V3.39995H60.343V61.256L60.5 93H0.0549927V79H30H46.607V61.256H0.0549927Z" fill="#F2B604"/>
<path d="M115.066 3.39995H128.25V93H115.066V61.256H71.93V3.39995H85.114V48.2H115.066V3.39995Z" fill="#F2B604"/>
<path d="M152.668 93H139.612V3.39995H198.62V93H185.436V54.856H152.668V93ZM152.668 16.584V41.672H185.436V16.584H152.668Z" fill="#F2B604"/>
<path d="M301.885 60.616C296.381 80.84 277.821 95.816 255.677 95.816C229.309 95.816 207.933 74.44 207.933 48.072C207.933 21.7039 229.309 0.32795 255.677 0.32795C278.077 0.32795 296.893 15.688 302.141 36.424H288.061C286.269 31.688 283.581 27.464 279.997 23.752C273.469 17.352 264.893 13.768 255.677 13.768C246.589 13.768 237.885 17.352 231.485 23.752C224.957 30.28 221.373 38.856 221.373 48.072C221.373 57.288 224.957 65.864 231.485 72.392C237.885 78.792 246.589 82.376 255.677 82.376C264.893 82.376 273.469 78.792 279.997 72.392C283.453 68.936 286.013 64.968 287.677 60.616H301.885Z" fill="#F2B604"/>
<path d="M362.721 16.584H339.425V93H326.369V16.584H303.073V3.39995H362.721V16.584Z" fill="#F2B604"/>
<path d="M449.063 92.744H372.775V3.39995H423.847V38.6H448.935V39.496H449.063V92.744ZM410.663 38.6V16.584H385.959V38.6H410.663ZM385.959 79.56H435.879V51.656H385.959V79.56Z" fill="#F2B604"/>
<path d="M552.552 48.072C552.552 74.44 531.048 95.944 504.68 95.944C478.184 95.944 456.808 74.44 456.808 48.072C456.808 21.576 478.184 0.199951 504.68 0.199951C531.048 0.199951 552.552 21.576 552.552 48.072ZM470.248 48.072C470.248 57.16 473.832 65.864 480.36 72.264C486.888 78.792 495.464 82.376 504.68 82.376C513.896 82.376 522.472 78.792 529 72.264C535.528 65.864 538.984 57.16 538.984 48.072C538.984 38.856 535.528 30.152 529 23.752C522.472 17.224 513.896 13.64 504.68 13.64C495.464 13.64 486.888 17.224 480.36 23.752C473.832 30.152 470.248 38.856 470.248 48.072Z" fill="#F2B604"/>
<path d="M637.938 92.744H561.65V3.39995H612.722V38.6H637.81V39.496H637.938V92.744ZM599.538 38.6V16.584H574.834V38.6H599.538ZM574.834 79.56H624.754V51.656H574.834V79.56Z" fill="#F2B604"/>
<path d="M661.043 93H647.987V3.39995H706.995V93H693.811V54.856H661.043V93ZM661.043 16.584V41.672H693.811V16.584H661.043Z" fill="#F2B604"/>
<path d="M777.471 16.584H754.175V93H741.119V16.584H717.823V3.39995H777.471V16.584Z" fill="#F2B604"/>
<path d="M843.908 60.232C843.908 68.936 840.452 77.128 834.308 83.4C828.164 89.544 819.844 93 811.14 93H786.18V3.39995H799.748V27.336H811.14C819.844 27.336 828.164 30.792 834.308 36.936C840.452 43.208 843.908 51.4 843.908 60.232ZM811.14 79.432C821.764 79.432 830.468 70.856 830.468 60.232C830.468 49.608 821.764 40.904 811.14 40.904H799.748V79.432H811.14Z" fill="#F2B604"/>
</svg>
