<svg width="32" height="32" viewBox="0 0 32 32" fill="none" xmlns="http://www.w3.org/2000/svg">
<rect width="32" height="32" rx="2" fill="#D8A201"/>
<path d="M24.6998 10.1871C24.4685 12.6229 23.4664 18.5429 22.9577 21.2717C22.7419 22.4279 22.3102 22.8133 21.9094 22.8596C21.0152 22.9367 20.3369 22.2738 19.4735 21.7033C18.1169 20.8092 17.346 20.2542 16.0356 19.3908C14.5094 18.3887 15.496 17.8337 16.3748 16.9396C16.606 16.7083 20.5527 13.1162 20.6298 12.7925C20.6405 12.7435 20.6391 12.6926 20.6256 12.6442C20.6122 12.5958 20.5872 12.5515 20.5527 12.515C20.4602 12.4379 20.3369 12.4688 20.2289 12.4842C20.0902 12.515 17.9319 13.9487 13.7231 16.7854C13.1064 17.2017 12.5514 17.4175 12.0581 17.4021C11.5031 17.3867 10.4548 17.0937 9.66852 16.8317C8.69727 16.5233 7.94186 16.3537 8.00352 15.8142C8.03436 15.5367 8.41977 15.2592 9.14436 14.9662C13.646 13.0083 16.6369 11.7133 18.1323 11.0967C22.4181 9.30833 23.2969 9 23.8827 9C24.006 9 24.2989 9.03083 24.4839 9.185C24.6381 9.30833 24.6844 9.47792 24.6998 9.60125C24.6844 9.69375 24.7152 9.97125 24.6998 10.1871Z" fill="#09151F"/>
</svg>
