<svg width="33" height="32" viewBox="0 0 33 32" fill="none" xmlns="http://www.w3.org/2000/svg">
<path d="M33.3 28.8V3.6C33.3 1.62 31.6294 0 29.5907 0H3.70925C1.58175 0 0 1.5354 0 3.6V28.8C0 30.8664 1.58175 32.4 3.70925 32.4H29.5907C30.5725 32.3986 31.5137 32.0191 32.2087 31.3446C32.9037 30.67 33.2961 29.7552 33.3 28.8ZM26.2404 19.0926C26.2404 19.0926 28.3346 21.1032 28.8507 22.0356C28.8655 22.0554 28.8711 22.0734 28.8766 22.0806C29.0857 22.4226 29.1393 22.6926 29.0339 22.8906C28.86 23.22 28.268 23.3856 28.0663 23.4H24.3682C24.1092 23.4 23.5727 23.3352 22.9215 22.8978C22.422 22.5594 21.9281 21.9996 21.4471 21.4542C20.7292 20.6442 20.1076 19.9422 19.4823 19.9422C19.403 19.942 19.3242 19.9548 19.2492 19.98C18.7738 20.1276 18.1707 20.7846 18.1707 22.5396C18.1707 23.0886 17.7267 23.4018 17.4122 23.4018H15.7176C15.1404 23.4018 12.1341 23.2056 9.472 20.4714C6.2049 17.1234 3.2708 10.4076 3.2449 10.3482C3.0599 9.9144 3.44285 9.6786 3.8591 9.6786H7.5961C8.09745 9.6786 8.2584 9.9738 8.3731 10.2384C8.5026 10.539 8.991 11.7522 9.7902 13.1166C11.0907 15.336 11.8918 16.2396 12.53 16.2396C12.6494 16.2389 12.7666 16.2086 12.8704 16.1514C13.7048 15.7032 13.5494 12.8088 13.5124 12.2112C13.5124 12.0978 13.5105 10.917 13.085 10.35C12.7779 9.9396 12.2581 9.783 11.9436 9.7236C12.0718 9.55167 12.2406 9.41216 12.4357 9.3168C13.0073 9.0396 14.0378 9 15.0627 9H15.6325C16.7443 9.0144 17.0329 9.0846 17.4344 9.1836C18.2465 9.3726 18.2632 9.8856 18.191 11.6316C18.1707 12.1284 18.1485 12.6918 18.1485 13.3524C18.1485 13.4946 18.143 13.6512 18.143 13.8132C18.1171 14.706 18.0875 15.7158 18.7349 16.1298C18.8188 16.1808 18.9154 16.2082 19.0143 16.209C19.24 16.209 19.9152 16.209 21.7449 13.1544C22.5496 11.8062 23.1694 10.215 23.2119 10.0962C23.2766 9.96775 23.3702 9.85516 23.4857 9.7668C23.5805 9.71891 23.6861 9.69478 23.7928 9.6966H28.1866C28.6676 9.6966 28.9932 9.7668 29.0542 9.945C29.1597 10.2312 29.0339 11.1042 27.0266 13.743L26.1331 14.895C24.3127 17.2134 24.3127 17.3322 26.2404 19.0926Z" fill="#D8A201"/>
</svg>
